<svg viewBox="0 0 24 24" xmlns="http://www.w3.org/2000/svg">
  <path fill="none" d="M19.7645 22.7189L11.6137 22.7175L3.46157 22.7175C2.65524 22.7175 2.00171 22.0639 2.00171 21.2577L2.00271 17.3444C3.52783 17.9651 5.27977 18.5011 6.2797 17.1925C7.2795 15.8839 7.27964 14.0682 6.28004 12.7598C5.28038 11.4514 3.52837 11.9877 2.00312 12.6087L2 9.6926C2.00022 8.8863 2.65386 7.2326 3.46011 7.2325C4.26636 7.2323 9.11369 7.2325 9.11369 7.2325C7.6882 5.807 6.60636 4.4952 8.03209 3.0694C9.45782 1.6437 13.7692 1.6435 15.1947 3.069C16.6202 4.4945 15.6067 5.8059 14.181 7.2317L19.7658 7.2311C20.5721 7.2312 21.2256 8.8847 21.2257 9.691L21.2219 12.6071C19.6968 11.9864 17.9448 11.4504 16.945 12.7589C15.9451 14.0675 15.945 15.8832 16.9445 17.1916C17.9443 18.5 19.6963 17.9637 21.2215 17.3428L21.2246 21.2588C21.2245 22.0651 20.5708 22.7187 19.7645 22.7189Z" stroke="black" stroke-width="2.25" stroke-linecap="round" stroke-linejoin="round"/>
</svg>
